<svg xmlns="http://www.w3.org/2000/svg" id="Logotype" viewBox="499.81 499.62 499.81 499.83">
  <defs>
    <style>
      .cls-1 {
        fill: #00d4f7;
      }

      .cls-2 {
        fill: #7c89fc;
      }

      .cls-3 {
        fill: #0baf51;
      }

      .cls-5 {
        fill: #ff006e;
      }

      .cls-6 {
        fill: #f94c00;
      }

      .cls-7 {
        fill: #ffbe0b;
      }
    </style>
  </defs>
  <g>
    <path class="cls-7" d="M604.84,499.63h-77.71c-15.08,0-27.31,12.23-27.31,27.31v296.28c0,22.61,25.89,35.43,43.87,21.72l223.11-170.07c13.77-10.5,14.42-31,1.35-42.35l-145.39-126.21c-4.97-4.31-11.33-6.69-17.9-6.69Z"/>
    <path class="cls-5" d="M734.11,547.58l76.58,66.47c9.78,8.49,24.17,8.94,34.46,1.1l87.2-66.47c20.79-15.85,9.58-49.04-16.56-49.04h-163.78c-25.27,0-36.99,31.37-17.9,47.94Z"/>
    <path class="cls-6" d="M999.62,605.19h0c0-22.61-25.89-35.43-43.87-21.72l-69.3,52.83c-13.77,10.5-14.42,31-1.35,42.35l55.31,48.01c14.99,13.02,38.63,6.25,44.1-12.84,10.04-35.03,15.11-71.36,15.11-108.62Z"/>
    <path class="cls-2" d="M499.81,972.13c0,15.08,12.23,27.31,27.31,27.31h78.24c17.84,0,35.6-1.19,53.16-3.56,17.81-2.4,28.66-20.82,21.87-37.45l-37.94-92.86c-6.8-16.64-27.55-22.29-41.84-11.39l-90.04,68.63c-6.78,5.17-10.76,13.2-10.76,21.72v27.59Z"/>
    <path class="cls-3" d="M759.42,968.2c74.7-31.75,138.16-86.13,181.12-155.33,7.11-11.46,4.97-26.37-5.22-35.21l-92.77-80.53c-9.78-8.49-24.17-8.94-34.46-1.1l-128.01,97.58c-9.82,7.48-13.4,20.62-8.73,32.05l52.16,127.67c5.75,14.07,21.91,20.82,35.9,14.87Z"/>
    <path class="cls-1" d="M888.32,999.45h83.99c15.08,0,27.31-12.23,27.31-27.31v-84.16c0-26.09-33.02-37.28-48.95-16.62-23.04,29.88-49.59,56.37-78.84,79.01-20.7,16.02-9.69,49.08,16.49,49.08Z"/>
  </g>
</svg>