<svg xmlns="http://www.w3.org/2000/svg" viewBox="0 0 41 41" fill="none">
    <path d="M35.4508 6.57987C35.4508 6.57987 37.2406 9.01248 34.3581 10.857C30.5921 13.2671 25.8592 12.0483 15.6877 13.8655C5.5161 15.6827 7.36714 19 7.36714 19C2.32406 18.2944 1.87517 15.2091 2.0224 12.4253C2.16957 9.64145 5.70206 7.9953 8.03713 7.68936C10.3722 7.38347 18.7278 7.28756 21.567 6.08876C22.7425 5.59247 23.5201 4.21709 23.0712 3.35146C27.5593 1.92937 33.8708 5.19122 35.4509 6.57981L35.4508 6.57987Z" fill="#2974B9" style="fill: rgb(41, 116, 185) !important;"/>
    <path d="M35.451 6.58244C35.451 6.58244 37.24 9.01455 34.3589 10.8587C30.5947 13.2683 25.8642 12.0498 15.6976 13.8666C5.53101 15.6834 7.38115 19 7.38115 19C2.34053 18.2945 1.86298 15.3317 2.0257 12.5296C2.1964 9.59179 5.71683 7.99758 8.05076 7.69175C10.3847 7.38593 18.7361 7.29004 21.574 6.09149C22.7489 5.59531 23.5261 4.2202 23.0775 3.35475C27.5679 1.92347 33.8718 5.19414 35.4511 6.58244H35.451Z" fill="url(#paint_linear_1)" style="fill: url(&quot;#paint_linear_1&quot;) !important;"/>
    <path d="M25.0267 39.2247C26.9421 38.6256 29.8671 37.4228 32.4728 35.2525C32.8486 34.5974 32.8894 34.043 32.9626 33.6189C33.2179 32.1391 32.1994 28.8005 28.8814 28C28.8814 28 29.161 32.7167 24.818 34.5595C23.0217 35.3216 20.6871 36.0561 17.7087 36.2812L17.7146 36.2831C17.7073 36.2825 17.7026 36.2831 17.6954 36.2825C16.9829 36.3359 16.2306 36.357 15.4425 36.3452C13.889 36.4621 13.9157 37.6525 14.0678 38.0831C14.2699 38.6551 14.4843 39.0754 16.5764 39.6582C18.7874 40.0897 21.1961 40.1663 23.6703 39.5736C24.1523 39.4581 24.5945 39.3415 25.0267 39.2247V39.2247Z" fill="#2974B9" style="fill: rgb(41, 116, 185) !important;"/>
    <path d="M25.0249 39.2247C26.9407 38.6256 29.8664 37.4228 32.4727 35.2525C32.8485 34.5974 32.8894 34.043 32.9626 33.6189C33.2179 32.1391 32.1992 28.8005 28.8805 28C28.8805 28 29.1602 32.7167 24.8161 34.5595C23.0194 35.3216 20.6843 36.0561 17.7053 36.2812L17.7112 36.2831C17.7039 36.2825 17.6991 36.2831 17.6919 36.2825C16.9793 36.3359 16.2268 36.357 15.4385 36.3452C13.9166 36.4326 13.9114 37.6525 14.0636 38.0831C14.2657 38.6551 14.4802 39.0754 16.5727 39.6582C18.7842 40.0897 21.1934 40.1663 23.6681 39.5736C24.1503 39.4581 24.5926 39.3415 25.0249 39.2247V39.2247Z" fill="url(#paint_linear_2)" style="fill: url(&quot;#paint_linear_2&quot;) !important;"/>
    <path d="M25.2865 39.1513C27.1798 38.5406 29.9315 37.3905 32.4191 35.3577C32.8449 34.6662 32.8843 34.0623 32.9609 33.6196C33.217 32.1396 32.2542 28.8006 28.9256 28C28.9256 28 29.1471 32.7173 24.7901 34.5603C22.9974 35.3186 20.6692 36.0488 17.7036 36.2781L17.723 36.2841C17.699 36.2821 17.6836 36.284 17.6599 36.2821C16.9581 36.3351 16.2176 36.3565 15.4428 36.3465C13.9117 36.4283 13.9119 37.6536 14.0645 38.0843C14.2682 38.6593 14.4811 39.0807 16.6096 39.6681C16.6164 39.67 16.6195 39.6747 16.6261 39.6765C18.8162 40.0906 21.1949 40.1586 23.6388 39.575C24.2256 39.4348 24.7731 39.2934 25.2867 39.1513H25.2865Z" fill="url(#paint_linear_3)" style="fill: url(&quot;#paint_linear_3&quot;) !important;"/>
    <path d="M36.7936 16.8563C36.7936 16.8563 31.1901 13.941 20.0203 17.2971C8.85053 20.6531 4.59891 17.8291 3.76664 17.2192C2.42664 16.2372 1.18972 13.4457 1.9791 11C-0.376406 14.7946 -0.252394 19.5005 0.433408 23.054C1.69784 27.7795 4.90049 29.336 7.58784 29.7753C8.5736 29.8805 9.58765 29.9092 10.5602 29.8356C15.8458 29.4357 19.3735 27.4176 22.2392 26.9747C25.9404 26.4025 28.3657 27.0426 30.4438 28.3696C32.3165 29.5652 33.3575 31.1563 33.2463 32.5337C33.1135 34.1794 32.3705 35 32.3705 35C32.3705 35 37.8086 30.9227 39.2614 25.7418C40.7141 20.561 40.091 18.4518 36.7936 16.8562V16.8563Z" fill="#00A0E3" style="fill: rgb(0, 160, 227) !important;"/>
    <path d="M26.9178 1.25015C22.0529 -0.663711 14.1487 -0.923843 7.32519 4.42446C7.25058 4.48464 7.16573 4.55568 7.07873 4.63023C7.05644 4.64833 7.03449 4.66886 7.01221 4.68702C6.44347 5.18426 5.75974 5.90578 6.08342 6.26948C7.71461 8.96498 22.543 3.33342 22.543 3.33342C27.1089 2.22574 32.8701 5.17946 35 6.68058C32.4783 4.07891 30.7495 2.75749 26.9178 1.25009V1.25015Z" fill="#00A0E3" style="fill: rgb(0, 160, 227) !important;"/>
    <path d="M26.9178 1.25015C22.0529 -0.663711 14.1487 -0.923843 7.32519 4.42446C7.25058 4.48464 7.16573 4.55568 7.07873 4.63023C7.05644 4.64833 7.03449 4.66886 7.01221 4.68702C6.44347 5.18426 5.75974 5.90578 6.08342 6.26948C7.71461 8.96498 22.543 3.33342 22.543 3.33342C27.1205 2.21596 32.8701 5.17946 35 6.68058C32.4783 4.07891 30.7495 2.75749 26.9178 1.25009V1.25015Z" fill="url(#paint_linear_4)" style="fill: url(&quot;#paint_linear_4&quot;) !important;"/>
    <path d="M36.7936 16.8563C36.7936 16.8563 31.1901 13.941 20.0203 17.2971C8.85053 20.6531 4.59891 17.8291 3.76664 17.2192C2.42664 16.2372 1.18972 13.4457 1.9791 11C-0.376406 14.7946 -0.252394 19.5005 0.433408 23.054C1.69784 27.7795 4.90049 29.336 7.58784 29.7753C8.5736 29.8805 9.58765 29.9092 10.5602 29.8356C15.8458 29.4357 19.3735 27.4176 22.2392 26.9747C25.9404 26.4025 28.3657 27.0426 30.4438 28.3696C32.3165 29.5652 33.3575 31.1563 33.2463 32.5337C33.1135 34.1794 32.3705 35 32.3705 35C32.3705 35 37.8086 30.9227 39.2614 25.7418C40.7141 20.561 40.091 18.4518 36.7936 16.8562V16.8563Z" fill="url(#paint_linear_5)" style="fill: url(&quot;#paint_linear_5&quot;) !important;"/>
    <defs style="fill: none !important;">
        <linearGradient id="paint_linear_1" x1="26.8185" y1="-2.14577" x2="11.868" y2="24.5305" gradientUnits="userSpaceOnUse" style="fill: none !important;">
            <stop stop-color="#35357E" stop-opacity="0.6" style="fill: none !important; stop-color: rgb(53, 53, 126) !important;"/>
            <stop offset="0.0705882" stop-color="#35357E" stop-opacity="0.6" style="fill: none !important; stop-color: rgb(53, 53, 126) !important;"/>
            <stop offset="0.529412" stop-color="#FEFEFE" stop-opacity="0" style="fill: none !important; stop-color: rgb(254, 254, 254) !important;"/>
            <stop offset="1" stop-color="#FEFEFE" style="fill: none !important; stop-color: rgb(254, 254, 254) !important;"/>
        </linearGradient>
        <linearGradient id="paint_linear_2" x1="14" y1="34.0001" x2="33" y2="34.0001" gradientUnits="userSpaceOnUse" style="fill: none !important;">
            <stop stop-color="#35357E" stop-opacity="0.501961" style="fill: none !important; stop-color: rgb(53, 53, 126) !important;"/>
            <stop offset="0.0705882" stop-color="#35357E" stop-opacity="0.501961" style="fill: none !important; stop-color: rgb(53, 53, 126) !important;"/>
            <stop offset="0.529412" stop-color="#FEFEFE" stop-opacity="0" style="fill: none !important; stop-color: rgb(254, 254, 254) !important;"/>
            <stop offset="1" stop-color="#FEFEFE" style="fill: none !important; stop-color: rgb(254, 254, 254) !important;"/>
        </linearGradient>
        <linearGradient id="paint_linear_3" x1="28.4616" y1="25.368" x2="18.4721" y2="42.5936" gradientUnits="userSpaceOnUse" style="fill: none !important;">
            <stop stop-color="#35357E" stop-opacity="0.698039" style="fill: none !important; stop-color: rgb(53, 53, 126) !important;"/>
            <stop offset="0.0705882" stop-color="#35357E" stop-opacity="0.698039" style="fill: none !important; stop-color: rgb(53, 53, 126) !important;"/>
            <stop offset="0.529412" stop-color="#FEFEFE" stop-opacity="0" style="fill: none !important; stop-color: rgb(254, 254, 254) !important;"/>
            <stop offset="1" stop-color="#FEFEFE" style="fill: none !important; stop-color: rgb(254, 254, 254) !important;"/>
        </linearGradient>
        <linearGradient id="paint_linear_4" x1="25.6406" y1="-5.40322" x2="15.3606" y2="12.4039" gradientUnits="userSpaceOnUse" style="fill: none !important;">
            <stop stop-color="#2B2A29" stop-opacity="0.501961" style="fill: none !important; stop-color: rgb(43, 42, 41) !important;"/>
            <stop offset="0.188235" stop-color="#2B2A29" stop-opacity="0.501961" style="fill: none !important; stop-color: rgb(43, 42, 41) !important;"/>
            <stop offset="0.670588" stop-color="#FEFEFE" stop-opacity="0" style="fill: none !important; stop-color: rgb(254, 254, 254) !important;"/>
            <stop offset="1" stop-color="#FEFEFE" style="fill: none !important; stop-color: rgb(254, 254, 254) !important;"/>
        </linearGradient>
        <linearGradient id="paint_linear_5" x1="9.83619e-06" y1="23.0001" x2="40" y2="23.0001" gradientUnits="userSpaceOnUse" style="fill: none !important;">
            <stop stop-color="#2B2A29" stop-opacity="0.6" style="fill: none !important; stop-color: rgb(43, 42, 41) !important;"/>
            <stop offset="0.0705882" stop-color="#2B2A29" stop-opacity="0.6" style="fill: none !important; stop-color: rgb(43, 42, 41) !important;"/>
            <stop offset="0.529412" stop-color="#FEFEFE" stop-opacity="0" style="fill: none !important; stop-color: rgb(254, 254, 254) !important;"/>
            <stop offset="1" stop-color="#FEFEFE" style="fill: none !important; stop-color: rgb(254, 254, 254) !important;"/>
        </linearGradient>
    </defs>
</svg>
